<svg t="1765432533785" class="icon" viewBox="0 0 1769 1024" version="1.1" xmlns="http://www.w3.org/2000/svg" p-id="14559" width="200" height="200"><path d="M590.498681 659.840512C746.900512 591.845399 1017.685773 542.716549 956.992525 378.756074 896.299277 214.800268 772.279627 80.9203 590.498681 80.9203S261.354528 228.283506 261.354528 410.064453s172.742321 317.771172 329.144153 249.776059zM1164.750181 809.239276c117.320048 0 212.426368-95.10632 212.426368-212.426368S1282.07023 384.38654 1164.750181 384.38654 732.894378 655.171801 816.931183 701.858914s230.49895 107.380362 347.818998 107.380362z" fill="#E6E9EF" p-id="14560"></path><path d="M1342.908208 278.383448a7.003067 7.003067 0 0 1-7.003067 7.003067h-32.68098a7.003067 7.003067 0 0 1 0-14.006134h32.68098a7.003067 7.003067 0 0 1 7.003067 7.003067z m-21.844901-60.020953a7.003067 7.003067 0 0 1-0.863711 9.864987l-25.033631 21.009201a7.003067 7.003067 0 1 1-9.005944-10.728699l25.038299-21.009201a7.003067 7.003067 0 0 1 9.864987 0.863712z m-108.650251-18.282674l16.34049 28.306397a7.003067 7.003067 0 1 1-12.129312 7.003067l-16.34049-28.306397a7.003067 7.003067 0 0 1 12.129312-7.003067z m53.335359-13.651312a7.003067 7.003067 0 0 1 5.681822 8.109551l-5.677153 32.186097a7.003067 7.003067 0 0 1-13.791374-2.42773l5.672484-32.186097a7.003067 7.003067 0 0 1 8.114221-5.681821z" fill="#CCD6E3" p-id="14561"></path><path d="M695.544687 174.294528m-28.012268 0a28.012268 28.012268 0 1 0 56.024536 0 28.012268 28.012268 0 1 0-56.024536 0Z" fill="#F0F4F7" p-id="14562"></path><path d="M788.918915 823.24541h172.742321a32.68098 32.68098 0 0 1 32.68098 32.68098h-238.104281a32.68098 32.68098 0 0 1 32.68098-32.68098z" fill="#6CB1F7" p-id="14563"></path><path d="M780.407854 756.903022c98.40243 26.807741 158.983629 40.211611 181.738928 40.211611 22.755299 0 22.755299-21.63014 0-64.881082H791.482037L780.407854 756.903022z" fill="#6CB1F7" p-id="14564"></path><path d="M527.471077 314.355869m14.006134 0l662.957017 0q14.006134 0 14.006134 14.006134l0 410.846602q0 14.006134-14.006134 14.006135l-662.957017 0q-14.006134 0-14.006134-14.006135l0-410.846602q0-14.006134 14.006134-14.006134Z" fill="#FFFFFF" p-id="14565"></path><path d="M555.483346 333.030715m9.337422 0l74.699382 0q9.337423 0 9.337423 9.337423l0 0q0 9.337423-9.337423 9.337422l-74.699382 0q-9.337423 0-9.337422-9.337422l0 0q0-9.337423 9.337422-9.337423Z" fill="#FFD779" p-id="14566"></path><path d="M1181.090671 342.368138m-9.337423 0a9.337423 9.337423 0 1 0 18.674846 0 9.337423 9.337423 0 1 0-18.674846 0Z" fill="#FFD779" p-id="14567"></path><path d="M564.820768 365.711695h616.269903a9.337423 9.337423 0 0 1 9.337423 9.337422v14.006135a9.337423 9.337423 0 0 1-9.337423 9.337422H564.820768a9.337423 9.337423 0 0 1-9.337422-9.337422V375.049117a9.337423 9.337423 0 0 1 9.337422-9.337422zM592.833037 426.404943h74.699382a9.337423 9.337423 0 0 1 9.337423 9.337422v280.122684a9.337423 9.337423 0 0 1-9.337423 9.337422H592.833037a9.337423 9.337423 0 0 1-9.337423-9.337422V435.742365a9.337423 9.337423 0 0 1 9.337423-9.337422zM714.219533 426.404943h438.85887a9.337423 9.337423 0 0 1 9.337423 9.337422v280.122684a9.337423 9.337423 0 0 1-9.337423 9.337422H714.219533a9.337423 9.337423 0 0 1-9.337423-9.337422V435.742365a9.337423 9.337423 0 0 1 9.337423-9.337422z" fill="#F0F4F7" p-id="14568"></path><path d="M499.458809 692.521492h746.993822v65.361959H499.458809z" fill="#92CCFB" p-id="14569"></path><path d="M872.95572 725.202471m-14.006134 0a14.006134 14.006134 0 1 0 28.012268 0 14.006134 14.006134 0 1 0-28.012268 0Z" fill="#FFFFFF" p-id="14570"></path><path d="M455.94175 958.638041a31.08428 28.012268 0 1 0 62.168561 0 31.08428 28.012268 0 1 0-62.168561 0Z" fill="#E9E8EB" p-id="14571"></path><path d="M275.33265 1006.772455c194.9187-133.142311 349.476391-146.214703 463.682409-39.217176 60.5065 56.687494 129.836864 74.279198 196.202596 67.182757 121.526557-12.993024 233.094753-108.748294 262.288205-198.733037 30.085176-92.743952-180.79118-128.072091-632.633736-105.979749L275.33265 1006.772455z" fill="#D9DFE7" p-id="14572"></path></svg>